<?xml version="1.0" encoding="UTF-8"?>
<svg width="32px" height="32px" viewBox="0 0 32 32" version="1.1" xmlns="http://www.w3.org/2000/svg" xmlns:xlink="http://www.w3.org/1999/xlink">
    <!-- Generator: Sketch 53.2 (72643) - https://sketchapp.com -->
    <title>2</title>
    <desc>Created with Sketch.</desc>
    <g id="Page-1" stroke="none" stroke-width="1" fill="none" fill-rule="evenodd">
        <g id="uangku">
            <path d="M3.36711111,28.8604444 C1.79616782,28.8604444 0.522666667,27.5869433 0.522666667,26.016 L0.522666667,10.0444444 C0.541220902,9.28917305 1.14705621,8.68021489 1.90222222,8.65777778 L25.696,8.65777778 C27.2669433,8.65777778 28.5404444,9.93127893 28.5404444,11.5022222 L28.5404444,11.5022222 L28.5404444,26.0231111 C28.5404444,27.5940544 27.2669433,28.8675556 25.696,28.8675556 L3.36711111,28.8604444 Z M25.696,9.36888889 L1.91644444,9.36888889 C1.55634282,9.38991828 1.26902939,9.67723171 1.248,10.0373333 L1.248,26.0657778 C1.248,27.2439852 2.20312587,28.1991111 3.38133333,28.1991111 L25.7031111,28.1991111 C26.8813186,28.1991111 27.8364444,27.2439852 27.8364444,26.0657778 L27.8364444,11.4808889 L27.8364444,11.4808889 C27.8247241,10.3082441 26.8686966,9.36492131 25.696,9.36888889 L25.696,9.36888889 Z" id="Shape" fill="#133456" fill-rule="nonzero"></path>
            <circle id="Oval" fill="#FBAA1B" fill-rule="nonzero" cx="18.1724444" cy="8.40888889" r="3.79733333"></circle>
            <path d="M18.1795556,12.5546667 C15.8859784,12.5546667 14.0266667,10.695355 14.0266667,8.40177778 C14.0266667,6.10820058 15.8859784,4.24888889 18.1795556,4.24888889 C20.4731328,4.24888889 22.3324444,6.10820058 22.3324444,8.40177778 C22.3324444,9.50319239 21.8949092,10.5594959 21.1160915,11.3383137 C20.3372737,12.1171314 19.2809702,12.5546667 18.1795556,12.5546667 L18.1795556,12.5546667 Z M18.1795556,4.96711111 C16.2787142,4.96711111 14.7377778,6.50804751 14.7377778,8.40888889 C14.7377778,10.3097303 16.2787142,11.8506667 18.1795556,11.8506667 C20.0803969,11.8506667 21.6213333,10.3097303 21.6213333,8.40888889 C21.6174117,6.51082516 20.0776233,4.97421817 18.1795556,4.97422222 L18.1795556,4.96711111 Z" id="Shape" fill="#143456" fill-rule="nonzero"></path>
            <circle id="Oval" fill="#FFCD05" fill-rule="nonzero" cx="19.3386667" cy="8.40888889" r="3.79733333"></circle>
            <path d="M19.3457778,12.5546667 C17.0522006,12.5546667 15.1928889,10.695355 15.1928889,8.40177778 C15.1928889,6.10820058 17.0522006,4.24888889 19.3457778,4.24888889 C21.639355,4.24888889 23.4986667,6.10820058 23.4986667,8.40177778 C23.4986667,9.50319239 23.0611314,10.5594959 22.2823137,11.3383137 C21.5034959,12.1171314 20.4471924,12.5546667 19.3457778,12.5546667 Z M19.3457778,4.96711111 C17.4449364,4.96711111 15.904,6.50804751 15.904,8.40888889 C15.904,10.3097303 17.4449364,11.8506667 19.3457778,11.8506667 C21.2466192,11.8506667 22.7875556,10.3097303 22.7875556,8.40888889 C22.7836339,6.51082516 21.2438456,4.97421817 19.3457778,4.97422222 L19.3457778,4.96711111 Z" id="Shape" fill="#143456" fill-rule="nonzero"></path>
            <path d="M21.8631111,8.416 C21.8633247,9.50360198 21.1650382,10.4683562 20.1318165,10.8079605 C19.0985948,11.1475648 17.9641093,10.785215 17.3190332,9.90956954 C16.6739571,9.03392409 16.6641796,7.84301721 17.2947913,6.95689813 C17.9254029,6.07077905 19.053786,5.68985065 20.0924444,6.01244444 C21.1453134,6.33945182 21.8628946,7.31351793 21.8631111,8.416 Z" id="Path" fill="#FFCD05" fill-rule="nonzero"></path>
            <path d="M20.7182222,7.94666667 L19.3457778,10.3217778 L17.9733333,7.95377778 L18.72,7.95377778 L18.72,6.75911111 C19.1233878,6.63687579 19.5539455,6.63687579 19.9573333,6.75911111 L19.9573333,7.95377778 L20.7182222,7.94666667 Z" id="Path" fill="#2C9ED9" fill-rule="nonzero"></path>
            <path d="M18.5351111,6.45333333 C18.3387432,6.45333333 18.1795556,6.29414569 18.1795556,6.09777778 L18.1795556,1.29777778 C18.1795556,1.10140987 18.3387432,0.942222222 18.5351111,0.942222222 C18.731479,0.942222222 18.8906667,1.10140987 18.8906667,1.29777778 L18.8906667,6.09777778 C18.8906667,6.29414569 18.731479,6.45333333 18.5351111,6.45333333 Z" id="Path" fill="#143456" fill-rule="nonzero"></path>
            <path d="M21.0951111,2.44977778 C20.8987432,2.44977778 20.7395556,2.29059013 20.7395556,2.09422222 L20.7395556,1.53244444 C20.7395556,1.33607653 20.8987432,1.17688889 21.0951111,1.17688889 C21.291479,1.17688889 21.4506667,1.33607653 21.4506667,1.53244444 L21.4506667,2.08711111 C21.4525776,2.18263631 21.4159626,2.27491091 21.3490748,2.34313651 C21.282187,2.4113621 21.1906554,2.44979689 21.0951111,2.44977778 L21.0951111,2.44977778 Z" id="Path" fill="#143456" fill-rule="nonzero"></path>
            <path d="M21.0951111,7.57688889 C20.8987432,7.57688889 20.7395556,7.41770124 20.7395556,7.22133333 L20.7395556,3.81511111 C20.7395556,3.6187432 20.8987432,3.45955556 21.0951111,3.45955556 C21.291479,3.45955556 21.4506667,3.6187432 21.4506667,3.81511111 L21.4506667,7.20711111 C21.4545393,7.30384954 21.4187958,7.39798399 21.3516919,7.4677721 C21.2845879,7.53756021 21.191927,7.57696637 21.0951111,7.57688889 Z" id="Path" fill="#143456" fill-rule="nonzero"></path>
            <path d="M16.1813333,5.03111111 C15.9849654,5.03111111 15.8257778,4.87192347 15.8257778,4.67555556 L15.8257778,1.38311111 C15.8257778,1.1867432 15.9849654,1.02755556 16.1813333,1.02755556 C16.3777012,1.02755556 16.5368889,1.1867432 16.5368889,1.38311111 L16.5368889,4.67555556 C16.5368889,4.87192347 16.3777012,5.03111111 16.1813333,5.03111111 Z" id="Path" fill="#143456" fill-rule="nonzero"></path>
            <circle id="Oval" fill="#FBAA1B" fill-rule="nonzero" cx="13.3795556" cy="12.128" r="3.79733333"></circle>
            <path d="M13.3795556,16.2808889 C11.0859784,16.2808889 9.22666667,14.4215772 9.22666667,12.128 C9.22666667,9.8344228 11.0859784,7.97511111 13.3795556,7.97511111 C15.6731328,7.97511111 17.5324444,9.8344228 17.5324444,12.128 C17.5324444,13.2294146 17.0949092,14.2857182 16.3160915,15.0645359 C15.5372737,15.8433536 14.4809702,16.2808889 13.3795556,16.2808889 L13.3795556,16.2808889 Z M13.3795556,8.69333333 C11.4787142,8.69333333 9.93777778,10.2342697 9.93777778,12.1351111 C9.93777778,14.0359525 11.4787142,15.5768889 13.3795556,15.5768889 C15.2803969,15.5768889 16.8213333,14.0359525 16.8213333,12.1351111 C16.8213333,10.2342697 15.2803969,8.69333333 13.3795556,8.69333333 Z" id="Shape" fill="#143456" fill-rule="nonzero"></path>
            <circle id="Oval" fill="#FFCD05" fill-rule="nonzero" cx="14.5457778" cy="12.128" r="3.79733333"></circle>
            <path d="M14.5457778,16.2808889 C12.2522006,16.2808889 10.3928889,14.4215772 10.3928889,12.128 C10.3928889,9.8344228 12.2522006,7.97511111 14.5457778,7.97511111 C16.839355,7.97511111 18.6986667,9.8344228 18.6986667,12.128 C18.6986667,13.2294146 18.2611314,14.2857182 17.4823137,15.0645359 C16.7034959,15.8433536 15.6471924,16.2808889 14.5457778,16.2808889 L14.5457778,16.2808889 Z M14.5457778,8.69333333 C12.6449364,8.69333333 11.104,10.2342697 11.104,12.1351111 C11.104,14.0359525 12.6449364,15.5768889 14.5457778,15.5768889 C16.4466192,15.5768889 17.9875556,14.0359525 17.9875556,12.1351111 C17.9875556,10.2342697 16.4466192,8.69333333 14.5457778,8.69333333 Z" id="Shape" fill="#143456" fill-rule="nonzero"></path>
            <path d="M17.0702222,12.128 C17.0652521,13.2137964 16.3646382,14.1740501 15.3321628,14.5101649 C14.2996874,14.8462798 13.1680453,14.4825037 12.5248231,13.6077216 C11.8816009,12.7329394 11.8717653,11.5443056 12.5004231,10.658999 C13.129081,9.7736923 14.2545483,9.39123921 15.2924444,9.71022222 C16.3531626,10.0362193 17.0753016,11.0183283 17.0702222,12.128 Z" id="Path" fill="#FFCD05" fill-rule="nonzero"></path>
            <path d="M15.9182222,11.6657778 L14.5528889,14.0337778 L13.1804444,11.6657778 L13.9271111,11.6657778 L13.9271111,10.4711111 C14.3304989,10.3488758 14.7610567,10.3488758 15.1644444,10.4711111 L15.1644444,11.6657778 L15.9182222,11.6657778 Z" id="Path" fill="#2C9ED9" fill-rule="nonzero"></path>
            <circle id="Oval" fill="#FBAA1B" fill-rule="nonzero" cx="22.9866667" cy="12.8035556" r="3.79733333"></circle>
            <path d="M22.9937778,16.9564444 C20.7002006,16.9564444 18.8408889,15.0971328 18.8408889,12.8035556 C18.8408889,10.5099784 20.7002006,8.65066667 22.9937778,8.65066667 C25.287355,8.65066667 27.1466667,10.5099784 27.1466667,12.8035556 C27.1466667,13.9049702 26.7091314,14.9612737 25.9303137,15.7400915 C25.1514959,16.5189092 24.0951924,16.9564444 22.9937778,16.9564444 L22.9937778,16.9564444 Z M22.9937778,9.36888889 C21.6017086,9.36888889 20.3467115,10.2074511 19.8139897,11.4935553 C19.2812679,12.7796595 19.5757318,14.2600295 20.5600734,15.2443711 C21.5444149,16.2287126 23.0247849,16.5231765 24.3108891,15.9904547 C25.5969933,15.4577329 26.4355556,14.2027358 26.4355556,12.8106667 C26.4355556,10.9098253 24.8946192,9.36888889 22.9937778,9.36888889 L22.9937778,9.36888889 Z" id="Shape" fill="#143456" fill-rule="nonzero"></path>
            <circle id="Oval" fill="#FFCD05" fill-rule="nonzero" cx="24.1528889" cy="12.8035556" r="3.79733333"></circle>
            <path d="M24.16,16.9564444 C22.4803132,16.9564444 20.9660193,15.9446256 20.323231,14.3927973 C19.6804427,12.8409691 20.0357462,11.0547376 21.2234641,9.86701966 C22.411182,8.67930176 24.1974136,8.32399821 25.7492418,8.96678651 C27.30107,9.60957481 28.3128889,11.1238688 28.3128889,12.8035556 C28.3128889,15.0971328 26.4535772,16.9564444 24.16,16.9564444 L24.16,16.9564444 Z M24.16,9.36888889 C22.2591586,9.36888889 20.7182222,10.9098253 20.7182222,12.8106667 C20.7182222,14.711508 22.2591586,16.2524444 24.16,16.2524444 C26.0608414,16.2524444 27.6017778,14.711508 27.6017778,12.8106667 C27.6017778,11.8978504 27.2391629,11.0224208 26.5937044,10.3769623 C25.9482459,9.73150372 25.0728162,9.36888889 24.16,9.36888889 L24.16,9.36888889 Z" id="Shape" fill="#143456" fill-rule="nonzero"></path>
            <path d="M26.6773333,12.8035556 C26.6867936,13.8930749 25.9942546,14.8650124 24.9613623,15.2118196 C23.9284699,15.5586267 22.7897048,15.2015735 22.1397335,14.3271141 C21.4897623,13.4526548 21.4761371,12.2593035 22.1059732,11.3702319 C22.7358093,10.4811603 23.8661252,10.0981997 24.9066667,10.4213333 C25.9520543,10.7459719 26.667829,11.7089619 26.6773333,12.8035556 L26.6773333,12.8035556 Z" id="Path" fill="#FFCD05" fill-rule="nonzero"></path>
            <path d="M25.5324444,12.3413333 L24.16,14.688 L22.7875556,12.3413333 L23.5342222,12.3413333 L23.5342222,11.1324444 C23.93761,11.0102091 24.3681678,11.0102091 24.7715556,11.1324444 L24.7715556,12.3413333 L25.5324444,12.3413333 Z" id="Path" fill="#2C9ED9" fill-rule="nonzero"></path>
            <circle id="Oval" fill="#FBAA1B" fill-rule="nonzero" cx="5.17333333" cy="8.33066667" r="3.79733333"></circle>
            <path d="M5.18044444,12.4835556 C2.88686724,12.4835556 1.02755556,10.6242439 1.02755556,8.33066667 C1.02755556,6.03708947 2.88686724,4.17777778 5.18044444,4.17777778 C7.47402165,4.17777778 9.33333333,6.03708947 9.33333333,8.33066667 C9.33333333,10.6242439 7.47402165,12.4835556 5.18044444,12.4835556 Z M5.18044444,4.896 C3.27960307,4.896 1.73866667,6.4369364 1.73866667,8.33777778 C1.73866667,10.2386192 3.27960307,11.7795556 5.18044444,11.7795556 C7.08128582,11.7795556 8.62222222,10.2386192 8.62222222,8.33777778 C8.62222222,6.4369364 7.08128582,4.896 5.18044444,4.896 Z" id="Shape" fill="#143456" fill-rule="nonzero"></path>
            <circle id="Oval" fill="#FFCD05" fill-rule="nonzero" cx="6.33955556" cy="8.33066667" r="3.79733333"></circle>
            <path d="M6.33244444,12.4835556 C4.03886724,12.4835556 2.17955556,10.6242439 2.17955556,8.33066667 C2.17955556,6.03708947 4.03886724,4.17777778 6.33244444,4.17777778 C8.62602165,4.17777778 10.4853333,6.03708947 10.4853333,8.33066667 C10.4853333,9.43208128 10.0477981,10.4883848 9.26898034,11.2672026 C8.4901626,12.0460203 7.43385906,12.4835556 6.33244444,12.4835556 Z M6.33244444,4.896 C4.43160307,4.896 2.89066667,6.4369364 2.89066667,8.33777778 C2.89066667,10.2386192 4.43160307,11.7795556 6.33244444,11.7795556 C8.23328582,11.7795556 9.77422222,10.2386192 9.77422222,8.33777778 C9.77422222,6.4369364 8.23328582,4.896 6.33244444,4.896 Z" id="Shape" fill="#143456" fill-rule="nonzero"></path>
            <path d="M8.864,8.33777778 C8.86421359,9.42537975 8.16592707,10.390134 7.1327054,10.7297383 C6.09948372,11.0693426 4.9649982,10.7069928 4.31992212,9.83134732 C3.67484603,8.95570187 3.66506847,7.76479498 4.29568015,6.87867591 C4.92629182,5.99255683 6.0546749,5.61162843 7.09333333,5.93422222 C8.14620224,6.2612296 8.86378348,7.23529571 8.864,8.33777778 Z" id="Path" fill="#FFCD05" fill-rule="nonzero"></path>
            <path d="M7.71911111,7.86844444 L6.33244444,10.2435556 L4.96,7.87555556 L5.70666667,7.87555556 L5.70666667,6.68088889 C6.11005445,6.55865357 6.54061221,6.55865357 6.944,6.68088889 L6.944,7.87555556 L7.71911111,7.86844444 Z" id="Path" fill="#2C9ED9" fill-rule="nonzero"></path>
            <path d="M5.536,5.75644444 C5.33963209,5.75644444 5.18044444,5.5972568 5.18044444,5.40088889 L5.18044444,1.46133333 C5.18044444,1.26496542 5.33963209,1.10577778 5.536,1.10577778 C5.73236791,1.10577778 5.89155556,1.26496542 5.89155556,1.46133333 L5.89155556,5.39377778 C5.89346644,5.48930298 5.85685152,5.58157758 5.78996368,5.64980318 C5.72307584,5.71802877 5.63154431,5.75646356 5.536,5.75644444 Z" id="Path" fill="#143456" fill-rule="nonzero"></path>
            <path d="M8.096,5.59288889 C7.89963209,5.59288889 7.74044444,5.43370124 7.74044444,5.23733333 L7.74044444,2.93333333 C7.74044444,2.73696542 7.89963209,2.57777778 8.096,2.57777778 C8.29236791,2.57777778 8.45155556,2.73696542 8.45155556,2.93333333 L8.45155556,5.23022222 C8.45346644,5.32574742 8.41685152,5.41802202 8.34996368,5.48624762 C8.28307584,5.55447322 8.19154431,5.592908 8.096,5.59288889 L8.096,5.59288889 Z" id="Path" fill="#143456" fill-rule="nonzero"></path>
            <path d="M8.096,2.20088889 C7.89963209,2.20088889 7.74044444,2.04170124 7.74044444,1.84533333 L7.74044444,1.29777778 C7.74044444,1.10140987 7.89963209,0.942222222 8.096,0.942222222 C8.29236791,0.942222222 8.45155556,1.10140987 8.45155556,1.29777778 L8.45155556,1.84533333 C8.45155556,2.04170124 8.29236791,2.20088889 8.096,2.20088889 Z" id="Path" fill="#143456" fill-rule="nonzero"></path>
            <path d="M3.18222222,5.44355556 C2.98585431,5.44355556 2.82666667,5.28436791 2.82666667,5.088 L2.82666667,2.83377778 C2.82666667,2.63740987 2.98585431,2.47822222 3.18222222,2.47822222 C3.37859013,2.47822222 3.53777778,2.63740987 3.53777778,2.83377778 L3.53777778,5.05955556 C3.5457336,5.1586782 3.51181595,5.25660293 3.44425466,5.32956913 C3.37669336,5.40253532 3.28166312,5.44387432 3.18222222,5.44355556 Z" id="Path" fill="#143456" fill-rule="nonzero"></path>
            <path d="M28.0426667,13.8915556 L28.0426667,28.4337778 C28.0426667,29.8004984 26.9347207,30.9084444 25.568,30.9084444 L3.23911111,30.9084444 C1.87239045,30.9084444 0.764444444,29.8004984 0.764444444,28.4337778 L0.764444444,12.448 C0.762549873,12.1751883 0.869598319,11.9128993 1.0618413,11.7193213 C1.25408428,11.5257433 1.51562618,11.4168823 1.78844444,11.4168889 L25.5751111,11.4168889 C26.9390539,11.4208083 28.0426723,12.5276071 28.0426667,13.8915556 Z" id="Path" fill="#93D1EF" fill-rule="nonzero"></path>
            <path d="M3.23911111,31.264 C1.66816782,31.264 0.394666667,29.9904988 0.394666667,28.4195556 L0.394666667,12.448 C0.416922378,11.6955039 1.02172609,11.0907002 1.77422222,11.0684444 L25.5751111,11.0684444 C27.1460544,11.0684444 28.4195556,12.3419456 28.4195556,13.9128889 L28.4195556,28.4337778 C28.4195556,30.0047211 27.1460544,31.2782222 25.5751111,31.2782222 L3.23911111,31.2782222 L3.23911111,31.264 Z M25.5751111,11.7724444 L1.78844444,11.7724444 C1.42834282,11.7934738 1.14102939,12.0807873 1.12,12.4408889 L1.12,28.4408889 C1.12,29.0066841 1.34476126,29.5493057 1.74483887,29.9493834 C2.14491647,30.349461 2.68753816,30.5742222 3.25333333,30.5742222 L25.5751111,30.5742222 C26.7533186,30.5742222 27.7084444,29.6190964 27.7084444,28.4408889 L27.7084444,13.8915556 L27.7084444,13.8915556 C27.7084444,12.7133481 26.7533186,11.7582222 25.5751111,11.7582222 L25.5751111,11.7724444 Z" id="Shape" fill="#133456" fill-rule="nonzero"></path>
            <rect id="Rectangle" fill="#D9F0F8" fill-rule="nonzero" x="5.74933333" y="11.296" width="1.96266667" height="19.6835556"></rect>
            <rect id="Rectangle" fill="#D9F0F8" fill-rule="nonzero" x="21.088" y="11.296" width="1.96266667" height="19.6835556"></rect>
            <path d="M3.23911111,31.264 C1.66816782,31.264 0.394666667,29.9904988 0.394666667,28.4195556 L0.394666667,12.448 C0.416922378,11.6955039 1.02172609,11.0907002 1.77422222,11.0684444 L25.5751111,11.0684444 C27.1460544,11.0684444 28.4195556,12.3419456 28.4195556,13.9128889 L28.4195556,28.4337778 C28.4195556,30.0047211 27.1460544,31.2782222 25.5751111,31.2782222 L3.23911111,31.2782222 L3.23911111,31.264 Z M25.5751111,11.7724444 L1.78844444,11.7724444 C1.42834282,11.7934738 1.14102939,12.0807873 1.12,12.4408889 L1.12,28.4408889 C1.12,29.0066841 1.34476126,29.5493057 1.74483887,29.9493834 C2.14491647,30.349461 2.68753816,30.5742222 3.25333333,30.5742222 L25.5751111,30.5742222 C26.7533186,30.5742222 27.7084444,29.6190964 27.7084444,28.4408889 L27.7084444,13.8915556 L27.7084444,13.8915556 C27.7084444,12.7133481 26.7533186,11.7582222 25.5751111,11.7582222 L25.5751111,11.7724444 Z" id="Shape" fill="#133456" fill-rule="nonzero"></path>
            <path d="M26.0953287,17.692343 L28.8264398,17.692343 C29.6824812,17.692343 30.3764398,18.3863016 30.3764398,19.242343 L30.3764398,20.1530096 C30.3764398,21.009051 29.6824812,21.7030096 28.8264398,21.7030096 L26.0953287,21.7030096 C25.2392874,21.7030096 24.5453287,21.009051 24.5453287,20.1530096 L24.5453287,19.242343 C24.5453287,18.3863016 25.2392874,17.692343 26.0953287,17.692343 Z" id="Rectangle" fill="#289ED9" fill-rule="nonzero" transform="translate(27.460884, 19.697676) rotate(178.950000) translate(-27.460884, -19.697676) "></path>
            <path d="M25.6675556,22.0906667 C24.8761305,22.0909021 24.2290808,21.4596341 24.2097778,20.6684444 L24.2097778,18.8693333 C24.1938822,18.0668805 24.8296247,17.4025295 25.632,17.3831111 L29.2515556,17.3191111 C30.0540083,17.3032155 30.7183593,17.9389581 30.7377778,18.7413333 L30.7377778,20.5404444 C30.7536734,21.3428972 30.1179308,22.0072482 29.3155556,22.0266667 L25.696,22.0906667 L25.6675556,22.0906667 Z M25.6177778,18.08 C25.2137865,18.099177 24.898508,18.436525 24.9066667,18.8408889 L24.9066667,20.64 C24.9053162,20.8395676 24.9878892,21.0305177 25.1342222,21.1662222 C25.2803436,21.2986119 25.4703796,21.3720925 25.6675556,21.3724444 L29.2871111,21.3084444 C29.6911024,21.2892674 30.0063809,20.9519195 29.9982222,20.5475556 L29.9982222,18.7484444 C30.0012109,18.560443 29.9296203,18.3789099 29.7991111,18.2435556 C29.6580199,18.1032174 29.4645794,18.0284205 29.2657778,18.0373333 L25.6462222,18.1013333 L25.6177778,18.08 Z" id="Shape" fill="#133456" fill-rule="nonzero"></path>
            <circle id="Oval" fill="#92D0EF" fill-rule="nonzero" transform="translate(26.825053, 19.681036) rotate(-1.050000) translate(-26.825053, -19.681036) " cx="26.8250533" cy="19.681036" r="1"></circle>
            <path d="M11.5448889,21.5217778 C11.6210078,21.5204894 11.6960466,21.5035451 11.7653333,21.472 C11.9229635,21.3693569 12.1039726,21.3082052 12.2915556,21.2942222 C12.5715517,21.3241893 12.8412724,21.4165261 13.0808889,21.5644444 C13.2047602,21.6017984 13.3385573,21.5863603 13.4506667,21.5217778 C13.62502,21.2710362 13.6986388,20.9638683 13.6568889,20.6613333 C13.536,19.9928889 13.0595556,19.104 13.344,18.4284444 C13.7970359,17.6368663 14.5468774,17.0584903 15.4275556,16.8213333 C15.4275556,16.8213333 15.3706667,17.7671111 15.3493333,18.5493333 C15.3493333,18.9475556 15.3493333,19.4666667 15.3493333,19.4666667 C15.3066667,19.7013333 16.0604444,22.8302222 16.7715556,23.4702222 C17.2362326,23.9691534 17.7975365,24.3683565 18.4213333,24.6435556 C18.4213333,24.6435556 18.1653333,24.5653333 18.144,24.5937778 C18.1357643,24.6569925 18.166709,24.718882 18.2222222,24.7502222 C17.5589735,24.387288 16.8609525,24.0918798 16.1386667,23.8684444 C15.2188986,23.6796506 14.3097737,23.4422811 13.4151111,23.1573333 C12.6542222,22.816 12.704,22.1262222 11.808,21.7706667 C11.1349587,21.5341807 10.4457713,21.3464365 9.74577778,21.2088889 L11.5733333,21.4933333" id="Path" fill="#10375B"></path>
            <path d="M16.4231111,22.4106667 C16.7764161,21.6089092 17.2278669,20.8541025 17.7671111,20.1635556 C18.5706667,19.0613333 19.5235556,18.0302222 19.5235556,18.0302222 C18.7984624,18.1362215 18.0844426,18.3075863 17.3902222,18.5422222 C16.977843,18.6897414 16.5742231,18.8606863 16.1813333,19.0542222 C16.1392124,20.2454541 16.2274401,21.4377211 16.4444444,22.6097778 C16.4392223,22.5530087 16.4392223,22.4958802 16.4444444,22.4391111" id="Path" fill="#123B62"></path>
            <path d="M16.1386667,19.0328889 L16.1386667,19.0328889 C15.6835556,19.2533333 15.3564444,19.4453333 15.3564444,19.4453333 C15.3137778,19.68 16.0675556,22.8088889 16.7786667,23.4488889 C16.5676616,23.2080754 16.4469891,22.9013662 16.4373333,22.5813333 C16.220329,21.4092767 16.1321013,20.2170097 16.1742222,19.0257778" id="Path" fill="#10375B"></path>
        </g>
    </g>
</svg>