<?xml version="1.0" encoding="UTF-8"?>
<svg width="32px" height="32px" viewBox="0 0 32 32" version="1.1" xmlns="http://www.w3.org/2000/svg" xmlns:xlink="http://www.w3.org/1999/xlink">
    <!-- Generator: Sketch 53.2 (72643) - https://sketchapp.com -->
    <title>1</title>
    <desc>Created with Sketch.</desc>
    <g id="Page-1" stroke="none" stroke-width="1" fill="none" fill-rule="evenodd">
        <g id="paylater" transform="translate(0.000000, 3.000000)" fill-rule="nonzero">
            <path d="M26.7460465,2.96186047 L26.7460465,18.1804651 C26.8006462,19.552136 25.7360797,20.7098521 24.3646512,20.7702326 L5.06046512,20.7702326 C4.19787976,20.7558374 3.41242514,20.2702836 3.01395349,19.5051163 C2.79220167,19.0989511 2.67698807,18.6432174 2.67906977,18.1804651 L2.67906977,2.77581395 C2.67906342,1.45117635 3.75071758,0.376194068 5.07534884,0.372093023 L24.3646512,0.372093023 C25.7360797,0.43247351 26.8006462,1.59018963 26.7460465,2.96186047 Z" id="Path" fill="#92D0EE"></path>
            <path d="M5.06046512,21.1423256 C4.05604089,21.1192176 3.14490868,20.5479748 2.68651163,19.6539535 C2.43787176,19.1972383 2.30740177,18.6855913 2.30697674,18.1655814 L2.30697674,2.77581395 C2.30697125,1.24567577 3.54521615,0.00410224713 5.07534884,0 L24.3646512,0 C25.1247264,0.0290355799 25.8420616,0.359115983 26.3585611,0.917493781 C26.8750606,1.47587158 27.1483288,2.21671388 27.1181395,2.97674419 L27.1181395,2.97674419 L27.1181395,18.1804651 C27.1244899,18.9505134 26.8401351,19.6946194 26.3218605,20.264186 C25.8224433,20.8197512 25.111683,21.1386474 24.3646512,21.1423256 L5.06046512,21.1423256 Z M5.06046512,0.744186047 C3.94424481,0.752363704 3.04369098,1.65956369 3.04372093,2.77581395 L3.04372093,18.1804651 C3.04227363,18.580843 3.14211366,18.9750831 3.33395349,19.3265116 C3.66569447,19.9767177 4.33057219,20.3894005 5.06046512,20.3981395 L24.3646512,20.3981395 C24.905238,20.3942268 25.4189193,20.1617184 25.7786047,19.7581395 C26.1710921,19.3269529 26.3863691,18.763512 26.3813953,18.1804651 L26.3813953,2.96186047 L26.3813953,2.96186047 C26.4117929,2.39915724 26.2170055,1.84748976 25.8400281,1.42862591 C25.4630506,1.00976206 24.9348783,0.758141018 24.372093,0.729302326 L5.07534884,0.729302326 L5.06046512,0.744186047 Z" id="Shape" fill="#123456"></path>
            <path d="M28.9934884,5.4772093 L28.9934884,20.695814 C28.9934884,22.126103 27.83401,23.2855814 26.4037209,23.2855814 L5.26139535,23.2855814 C3.83110629,23.2855814 2.67162791,22.126103 2.67162791,20.695814 L2.67162791,3.97395349 C2.66962926,3.68715835 2.78267472,3.41152996 2.98547443,3.20873025 C3.18827414,3.00593054 3.46390254,2.89288508 3.75069767,2.89488372 L26.4037209,2.89488372 C27.8311088,2.89487783 28.9893867,4.04982733 28.9934884,5.4772093 Z" id="Path" fill="#92D0EE"></path>
            <rect id="Rectangle" fill="#D8EFF7" x="7.89581395" y="2.76837209" width="2.05395349" height="20.5990698"></rect>
            <rect id="Rectangle" fill="#D8EFF7" x="21.7153488" y="2.76093023" width="2.05395349" height="20.5990698"></rect>
            <path d="M5.26139535,23.6651163 C3.61738493,23.6651163 2.28465116,22.3323825 2.28465116,20.6883721 L2.28465116,3.22976744 C2.28465116,3.02426614 2.45124288,2.85767442 2.65674419,2.85767442 C2.86224549,2.85767442 3.02883721,3.02426614 3.02883721,3.22976744 L3.02883721,20.7032558 C3.02883721,21.9362636 4.02838754,22.935814 5.26139535,22.935814 L26.4111628,22.935814 C27.6441706,22.935814 28.6437209,21.9362636 28.6437209,20.7032558 L28.6437209,5.4772093 C28.6437209,4.24420149 27.6441706,3.24465116 26.4111628,3.24465116 L5.49953488,3.24465116 C5.29403358,3.24465116 5.12744186,3.07805944 5.12744186,2.87255814 C5.12744186,2.66705684 5.29403358,2.50046512 5.49953488,2.50046512 L26.4037209,2.50046512 C28.0477313,2.50046512 29.3804651,3.83319888 29.3804651,5.4772093 L29.3804651,20.695814 C29.3804651,22.3398244 28.0477313,23.6725581 26.4037209,23.6725581 L5.26139535,23.6651163 Z" id="Path" fill="#123456"></path>
            <path d="M26.8727183,10.9502434 L29.8750439,10.9502434 C30.7310852,10.9502434 31.4250439,11.6442021 31.4250439,12.5002434 L31.4250439,13.5974527 C31.4250439,14.4534941 30.7310852,15.1474527 29.8750439,15.1474527 L26.8727183,15.1474527 C26.0166769,15.1474527 25.3227183,14.4534941 25.3227183,13.5974527 L25.3227183,12.5002434 C25.3227183,11.6442021 26.0166769,10.9502434 26.8727183,10.9502434 Z" id="Rectangle" fill="#269DD8" transform="translate(28.373881, 13.048848) rotate(178.950000) translate(-28.373881, -13.048848) "></path>
            <path d="M26.5004651,15.5534884 C25.6722296,15.5537348 24.9950846,14.8931055 24.9748837,14.0651163 L24.9748837,12.1823256 C24.9582488,11.3425494 25.6235608,10.6472984 26.4632558,10.6269767 L30.2511628,10.56 C30.6540826,10.558165 31.0425794,10.7098384 31.3376744,10.984186 C31.6336504,11.2624442 31.8030271,11.6495908 31.8065116,12.055814 L31.8065116,13.9386047 C31.8190724,14.7767865 31.1560626,15.4696318 30.3181395,15.4939535 L26.5302326,15.5609302 L26.5004651,15.5534884 Z M26.4483721,11.3562791 C26.0255905,11.3763481 25.6956479,11.7293866 25.704186,12.1525581 L25.704186,14.0353488 C25.7027728,14.2441987 25.7891864,14.4440302 25.9423256,14.5860465 C26.0948606,14.7252132 26.2939846,14.8022078 26.5004651,14.8018605 L30.2883721,14.7348837 C30.7111537,14.7148147 31.0410962,14.3617762 31.0325581,13.9386047 L31.0325581,12.055814 C31.0124891,11.6330324 30.6594506,11.3030898 30.2362791,11.3116279 L26.4483721,11.3786047 L26.4483721,11.3562791 Z" id="Shape" fill="#123456"></path>
            <circle id="Oval" fill="#91CFEE" transform="translate(27.707819, 13.032265) rotate(-1.050000) translate(-27.707819, -13.032265) " cx="27.7078191" cy="13.0322651" r="1"></circle>
            <path d="M19.252093,12.212093 C19.2480097,11.0095508 18.2741701,10.0357113 17.0716279,10.0316279 L2.55255814,10.0316279 C1.35001596,10.0357113 0.376176394,11.0095508 0.372093023,12.212093 L0.372093023,14.2883721 L19.252093,14.2883721 L19.252093,12.212093 Z" id="Path" fill="#FFCC07"></path>
            <path d="M0.372093023,14.295814 L0.372093023,23.4195349 C0.376176394,24.6220771 1.35001596,25.5959166 2.55255814,25.6 L17.0716279,25.6 C18.2741701,25.5959166 19.2480097,24.6220771 19.252093,23.4195349 L19.252093,14.295814 L0.372093023,14.295814 Z" id="Path" fill="#92D0EE"></path>
            <rect id="Rectangle" fill="#D8EFF7" x="0.372093023" y="19.4009302" width="18.8725581" height="1"></rect>
            <rect id="Rectangle" fill="#D8EFF7" x="6.13209302" y="14.295814" width="1" height="11.1330233"></rect>
            <rect id="Rectangle" fill="#D8EFF7" x="12.7404651" y="14.295814" width="1" height="11.1330233"></rect>
            <path d="M0.372093023,14.295814 L19.2446512,14.295814" id="Path" fill="#269DD8"></path>
            <path d="M17.0716279,9.65953488 L2.55255814,9.65953488 C1.14281921,9.65953488 8.26212483e-17,10.8023541 0,12.212093 L0,23.4269767 C8.26212483e-17,24.8367157 1.14281921,25.9795349 2.55255814,25.9795349 L17.0716279,25.9795349 C18.4668144,25.9591947 19.587125,24.8223115 19.5869767,23.4269767 L19.5869767,12.212093 C19.587125,10.8167583 18.4668144,9.67987503 17.0716279,9.65953488 Z M2.55255814,10.4037209 L17.0716279,10.4037209 C18.0558033,10.4239757 18.8429991,11.2277092 18.8427907,12.212093 L18.8427907,13.9162791 L0.744186047,13.9162791 L0.744186047,12.212093 C0.744186047,11.2133567 1.55382181,10.4037209 2.55255814,10.4037209 L2.55255814,10.4037209 Z M17.0716279,25.227907 L2.55255814,25.227907 C1.55382181,25.227907 0.744186047,24.4182712 0.744186047,23.4195349 L0.744186047,14.667907 L18.8427907,14.667907 L18.8427907,23.4269767 C18.8389593,24.4084655 18.0529165,25.2077191 17.0716279,25.227907 Z" id="Shape" fill="#123456"></path>
            <rect id="Rectangle" fill="#269DD8" x="14.4223256" y="7.87348837" width="2.4855814" height="4.03348837" rx="1.18"></rect>
            <path d="M16.0372093,12.2790698 L15.2930233,12.2790698 C14.6025389,12.2790698 14.0427907,11.7193216 14.0427907,11.0288372 L14.0427907,8.75162791 C14.0427907,8.06114353 14.6025389,7.50139535 15.2930233,7.50139535 L16.0372093,7.50139535 C16.7276937,7.50139535 17.2874419,8.06114353 17.2874419,8.75162791 L17.2874419,11.0288372 C17.2874419,11.3604195 17.1557213,11.678421 16.9212572,11.9128851 C16.6867931,12.1473492 16.3687916,12.2790698 16.0372093,12.2790698 Z M15.2930233,8.2455814 C15.0135415,8.2455814 14.7869767,8.47214614 14.7869767,8.75162791 L14.7869767,11.0288372 C14.7869767,11.308319 15.0135415,11.5348837 15.2930233,11.5348837 L16.0372093,11.5348837 C16.3166911,11.5348837 16.5432558,11.308319 16.5432558,11.0288372 L16.5432558,8.75162791 C16.5432558,8.47214614 16.3166911,8.2455814 16.0372093,8.2455814 L15.2930233,8.2455814 Z" id="Shape" fill="#123456"></path>
            <rect id="Rectangle" fill="#269DD8" x="3.02883721" y="7.87348837" width="2.4855814" height="4.03348837" rx="1.18"></rect>
            <path d="M4.64372093,12.2790698 L3.89953488,12.2790698 C3.20905051,12.2790698 2.64930233,11.7193216 2.64930233,11.0288372 L2.64930233,8.75162791 C2.64930233,8.06114353 3.20905051,7.50139535 3.89953488,7.50139535 L4.64372093,7.50139535 C4.97530322,7.50139535 5.29330476,7.6331159 5.52776885,7.86757999 C5.76223294,8.10204407 5.89395349,8.42004562 5.89395349,8.75162791 L5.89395349,11.0288372 C5.89395349,11.7193216 5.33420531,12.2790698 4.64372093,12.2790698 L4.64372093,12.2790698 Z M3.89953488,8.2455814 C3.62005311,8.2455814 3.39348837,8.47214614 3.39348837,8.75162791 L3.39348837,11.0288372 C3.39348837,11.308319 3.62005311,11.5348837 3.89953488,11.5348837 L4.64372093,11.5348837 C4.9232027,11.5348837 5.14976744,11.308319 5.14976744,11.0288372 L5.14976744,8.75162791 C5.14976744,8.47214614 4.9232027,8.2455814 4.64372093,8.2455814 L3.89953488,8.2455814 Z" id="Shape" fill="#123456"></path>
        </g>
    </g>
</svg>