<?xml version="1.0" encoding="UTF-8"?>
<svg width="32px" height="32px" viewBox="0 0 32 32" version="1.1" xmlns="http://www.w3.org/2000/svg" xmlns:xlink="http://www.w3.org/1999/xlink">
    <!-- Generator: Sketch 53.2 (72643) - https://sketchapp.com -->
    <title>4</title>
    <desc>Created with Sketch.</desc>
    <g id="Page-1" stroke="none" stroke-width="1" fill="none" fill-rule="evenodd">
        <g id="my-cards" transform="translate(0.000000, 4.000000)" fill-rule="nonzero">
            <g id="Group" transform="translate(0.727273, 0.000000)">
                <path d="M30.4,2.61818182 L30.4,14.9090909 C30.4,15.7818182 29.8909091,16.5090909 29.1636364,16.8 C28.9454545,16.8727273 28.6545455,16.9454545 28.3636364,16.9454545 L4.87272727,16.9454545 C3.78181818,16.9454545 2.83636364,16.0727273 2.83636364,14.9090909 L2.83636364,2.61818182 C2.83636364,1.52727273 3.70909091,0.581818182 4.87272727,0.581818182 L28.3636364,0.581818182 C29.5272727,0.581818182 30.4,1.52727273 30.4,2.61818182 Z" id="Path" stroke="#133456" fill="#6A8BA4" stroke-linecap="round" stroke-linejoin="round"></path>
                <rect id="Rectangle" stroke="#133456" fill="#133456" x="3.12727273" y="3.41818182" width="27.3454545" height="5.30909091"></rect>
                <path d="M25.6,22.6909091 L2.18181818,22.6909091 C1.09090909,22.6909091 0.145454545,21.7454545 0.145454545,20.6545455 L0.145454545,8.36363636 C0.145454545,7.27272727 1.09090909,6.32727273 2.18181818,6.32727273 L25.6727273,6.32727273 C26.7636364,6.32727273 27.7090909,7.27272727 27.7090909,8.36363636 L27.7090909,20.6545455 C27.6363636,21.7454545 26.7636364,22.6909091 25.6,22.6909091 Z" id="Path" stroke="#133456" fill="#114068" stroke-linecap="round" stroke-linejoin="round"></path>
                <circle id="Oval" fill="#FFCD05" cx="24.5090909" cy="9.67272727" r="1.52727273"></circle>
                <g transform="translate(1.454545, 11.636364)">
                    <path d="M3.56363636,9.30909091 L0.945454545,9.30909091 C0.581818182,9.30909091 0.290909091,9.01818182 0.290909091,8.65454545 L0.290909091,7.49090909 C0.290909091,7.12727273 0.581818182,6.83636364 0.945454545,6.83636364 L3.56363636,6.83636364 C3.92727273,6.83636364 4.21818182,7.12727273 4.21818182,7.49090909 L4.21818182,8.65454545 C4.21818182,9.01818182 3.92727273,9.30909091 3.56363636,9.30909091 Z" id="Path" fill="#FFCD05"></path>
                    <rect id="Rectangle" fill="#6A8BA4" x="0.290909091" y="0.145454545" width="9.52727273" height="1"></rect>
                    <rect id="Rectangle" fill="#289ED9" x="0.290909091" y="2.4" width="23.9272727" height="1"></rect>
                    <rect id="Rectangle" fill="#6A8BA4" x="0.290909091" y="5.01818182" width="2.54545455" height="1"></rect>
                    <rect id="Rectangle" fill="#6A8BA4" x="3.78181818" y="5.01818182" width="2.54545455" height="1"></rect>
                    <rect id="Rectangle" fill="#6A8BA4" x="10.9090909" y="0.218181818" width="5.6" height="1"></rect>
                </g>
                <rect id="Rectangle" fill="#6A8BA4" x="20.6545455" y="19.7090909" width="5.01818182" height="1"></rect>
            </g>
            <g id="Group">
                <g transform="translate(2.909091, 0.000000)">
                    <path d="M28.2181818,2.61818182 L28.2181818,14.9090909 C28.2181818,15.7818182 27.7090909,16.5090909 26.9818182,16.8 C26.7636364,16.8727273 26.4727273,16.9454545 26.1818182,16.9454545 L2.69090909,16.9454545 C1.6,16.9454545 0.654545455,16.0727273 0.654545455,14.9090909 L0.654545455,2.61818182 C0.654545455,1.52727273 1.52727273,0.581818182 2.69090909,0.581818182 L26.1818182,0.581818182 C27.3454545,0.581818182 28.2181818,1.52727273 28.2181818,2.61818182 Z" id="Path" fill="#D9F0F8"></path>
                    <path d="M26.2545455,17.3090909 L2.69090909,17.3090909 C1.38181818,17.3090909 0.290909091,16.2181818 0.290909091,14.9090909 L0.290909091,2.61818182 C0.290909091,1.30909091 1.38181818,0.218181818 2.69090909,0.218181818 L26.1818182,0.218181818 C27.4909091,0.218181818 28.5818182,1.30909091 28.5818182,2.61818182 L28.5818182,14.9090909 C28.5818182,15.8545455 28,16.7272727 27.1272727,17.0909091 C26.8363636,17.2363636 26.5454545,17.3090909 26.2545455,17.3090909 Z M2.69090909,0.945454545 C1.74545455,0.945454545 1.01818182,1.67272727 1.01818182,2.61818182 L1.01818182,14.9090909 C1.01818182,15.8545455 1.74545455,16.5818182 2.69090909,16.5818182 L26.1818182,16.5818182 C26.4,16.5818182 26.6181818,16.5090909 26.8363636,16.4363636 C27.4909091,16.2181818 27.8545455,15.5636364 27.8545455,14.9090909 L27.8545455,2.61818182 C27.8545455,1.67272727 27.1272727,0.945454545 26.1818182,0.945454545 L2.69090909,0.945454545 Z" id="Shape" fill="#133456"></path>
                </g>
                <g transform="translate(2.909091, 2.909091)" fill="#133456">
                    <rect id="Rectangle" x="0.945454545" y="0.509090909" width="27.3454545" height="5.30909091"></rect>
                    <path d="M28.5818182,6.25454545 L0.581818182,6.25454545 L0.581818182,0.218181818 L28.6545455,0.218181818 L28.6545455,6.25454545 L28.5818182,6.25454545 Z M1.30909091,5.52727273 L27.9272727,5.52727273 L27.9272727,0.945454545 L1.30909091,0.945454545 L1.30909091,5.52727273 Z" id="Shape"></path>
                </g>
                <g transform="translate(0.000000, 5.818182)">
                    <path d="M26.3272727,16.8727273 L2.90909091,16.8727273 C1.81818182,16.8727273 0.872727273,15.9272727 0.872727273,14.8363636 L0.872727273,2.54545455 C0.872727273,1.45454545 1.81818182,0.509090909 2.90909091,0.509090909 L26.4,0.509090909 C27.4909091,0.509090909 28.4363636,1.45454545 28.4363636,2.54545455 L28.4363636,14.8363636 C28.3636364,15.9272727 27.4909091,16.8727273 26.3272727,16.8727273 Z" id="Path" fill="#93D1EF"></path>
                    <path d="M26.3272727,17.2363636 L2.90909091,17.2363636 C1.6,17.2363636 0.509090909,16.1454545 0.509090909,14.8363636 L0.509090909,2.54545455 C0.509090909,1.23636364 1.6,0.145454545 2.90909091,0.145454545 L26.4,0.145454545 C27.7090909,0.145454545 28.8,1.23636364 28.8,2.54545455 L28.8,14.8363636 C28.7272727,16.1454545 27.7090909,17.2363636 26.3272727,17.2363636 Z M2.90909091,0.872727273 C1.96363636,0.872727273 1.23636364,1.6 1.23636364,2.54545455 L1.23636364,14.8363636 C1.23636364,15.7818182 1.96363636,16.5090909 2.90909091,16.5090909 L26.4,16.5090909 C27.3454545,16.5090909 28.0727273,15.7818182 28.0727273,14.8363636 L28.0727273,2.54545455 C28.0727273,1.6 27.3454545,0.872727273 26.4,0.872727273 L2.90909091,0.872727273 Z" id="Shape" fill="#133456"></path>
                </g>
                <circle id="Oval" fill="#FFCD05" cx="25.2363636" cy="9.67272727" r="1.52727273"></circle>
                <g transform="translate(2.181818, 11.636364)">
                    <path d="M3.56363636,9.30909091 L0.945454545,9.30909091 C0.581818182,9.30909091 0.290909091,9.01818182 0.290909091,8.65454545 L0.290909091,7.49090909 C0.290909091,7.12727273 0.581818182,6.83636364 0.945454545,6.83636364 L3.56363636,6.83636364 C3.92727273,6.83636364 4.21818182,7.12727273 4.21818182,7.49090909 L4.21818182,8.65454545 C4.21818182,9.01818182 3.92727273,9.30909091 3.56363636,9.30909091 Z" id="Path" fill="#FFCD05"></path>
                    <rect id="Rectangle" fill="#D9F0F8" x="0.290909091" y="0.145454545" width="9.52727273" height="1"></rect>
                    <rect id="Rectangle" fill="#289ED9" x="0.290909091" y="2.4" width="23.9272727" height="1"></rect>
                    <rect id="Rectangle" fill="#D9F0F8" x="0.290909091" y="5.01818182" width="2.54545455" height="1"></rect>
                    <rect id="Rectangle" fill="#D9F0F8" x="3.78181818" y="5.01818182" width="2.54545455" height="1"></rect>
                    <rect id="Rectangle" fill="#D9F0F8" x="10.9090909" y="0.218181818" width="5.6" height="1"></rect>
                </g>
                <rect id="Rectangle" fill="#D9F0F8" x="21.3818182" y="19.7090909" width="5.01818182" height="1"></rect>
            </g>
        </g>
    </g>
</svg>