<?xml version="1.0" encoding="UTF-8"?>
<svg width="32px" height="32px" viewBox="0 0 32 32" version="1.1" xmlns="http://www.w3.org/2000/svg" xmlns:xlink="http://www.w3.org/1999/xlink">
    <!-- Generator: Sketch 53.2 (72643) - https://sketchapp.com -->
    <title>3</title>
    <desc>Created with Sketch.</desc>
    <g id="Page-1" stroke="none" stroke-width="1" fill="none" fill-rule="evenodd">
        <g id="direct-debit" transform="translate(0.000000, 3.000000)" fill-rule="nonzero">
            <rect id="Rectangle" fill="#93D1EF" x="0.380952381" y="0.380952381" width="30.5219048" height="7.23809524" rx="2.22"></rect>
            <path d="M29.2114286,8 L2.07238095,8 C0.929571824,7.9958215 0.00417850301,7.07042818 0,5.92761905 L0,2.07238095 C0.00417850301,0.929571824 0.929571824,0.00417850301 2.07238095,0 L29.2114286,0 C30.3542377,0.00417850301 31.279631,0.929571824 31.2838095,2.07238095 L31.2838095,5.92761905 C31.279631,7.07042818 30.3542377,7.9958215 29.2114286,8 Z M2.07238095,0.761904762 C1.35035577,0.766066394 0.766066394,1.35035577 0.761904762,2.07238095 L0.761904762,5.92761905 C0.766066394,6.64964423 1.35035577,7.23393361 2.07238095,7.23809524 L29.2114286,7.23809524 C29.9334538,7.23393361 30.5177431,6.64964423 30.5219048,5.92761905 L30.5219048,2.07238095 C30.5177431,1.35035577 29.9334538,0.766066394 29.2114286,0.761904762 L2.07238095,0.761904762 Z" id="Shape" fill="#133456"></path>
            <path d="M3.03238095,4.22857143 L28.2514286,4.22857143" id="Path" fill="#93D1EF"></path>
            <path d="M28.2514286,4.60952381 L3.03238095,4.60952381 C2.82198676,4.60952381 2.65142857,4.43896562 2.65142857,4.22857143 C2.65142857,4.01817724 2.82198676,3.84761905 3.03238095,3.84761905 L28.2514286,3.84761905 C28.4618228,3.84761905 28.632381,4.01817724 28.632381,4.22857143 C28.632381,4.43896562 28.4618228,4.60952381 28.2514286,4.60952381 Z" id="Path" fill="#133456"></path>
            <path d="M26.0038095,4.22857143 L26.0038095,23.1390476 C26.0038095,24.1531476 25.181719,24.9752381 24.167619,24.9752381 L20.632381,24.9752381 L20.632381,4.22857143 L26.0038095,4.22857143 Z" id="Path" fill="#289ED9"></path>
            <path d="M20.632381,4.22857143 L20.632381,24.9752381 L7.11619048,24.9752381 C6.10209048,24.9752381 5.28,24.1531476 5.28,23.1390476 L5.28,4.22857143 L20.632381,4.22857143 Z" id="Path" fill="#D9F0F8"></path>
            <polygon id="Rectangle" fill="#93D1EF" transform="translate(11.036190, 5.626667) rotate(90.000000) translate(-11.036190, -5.626667) " points="9.63809524 5.16571429 12.4342857 5.16571429 12.4342857 6.08761905 9.63809524 6.08761905"></polygon>
            <polygon id="Rectangle" fill="#289ED9" transform="translate(15.645714, 13.180952) rotate(90.000000) translate(-15.645714, -13.180952) " points="6.70095238 12.72 24.5904762 12.72 24.5904762 13.6419048 6.70095238 13.6419048"></polygon>
            <polygon id="Rectangle" fill="#93D1EF" transform="translate(11.127619, 11.085714) rotate(90.000000) translate(-11.127619, -11.085714) " points="8.17904762 10.6247619 14.0761905 10.6247619 14.0761905 11.5466667 8.17904762 11.5466667"></polygon>
            <rect id="Rectangle" fill="#93D1EF" transform="translate(19.287619, 14.640000) rotate(-180.000000) translate(-19.287619, -14.640000) " x="18.1790476" y="4.3047619" width="2.21714286" height="20.6704762"></rect>
            <path d="M20.3961905,4.3047619 L20.3961905,24.9066667" id="Path" fill="#289ED9"></path>
            <path d="M20.3961905,25.28 C20.1857963,25.28 20.0152381,25.1094418 20.0152381,24.8990476 L20.0152381,4.29714286 C20.0152381,4.08674867 20.1857963,3.91619048 20.3961905,3.91619048 C20.6065847,3.91619048 20.7771429,4.08674867 20.7771429,4.29714286 L20.7771429,24.8685714 C20.785667,24.9747743 20.7493266,25.0796936 20.6769395,25.1578717 C20.6045524,25.2360498 20.5027343,25.2803415 20.3961905,25.28 L20.3961905,25.28 Z" id="Path" fill="#133456"></path>
            <path d="M24.167619,25.3561905 L7.11619048,25.3561905 C5.89169629,25.3561905 4.89904762,24.3635418 4.89904762,23.1390476 L4.89904762,4.22857143 C4.89904762,4.01817724 5.06960581,3.84761905 5.28,3.84761905 L26.0038095,3.84761905 C26.2142037,3.84761905 26.3847619,4.01817724 26.3847619,4.22857143 L26.3847619,23.1390476 C26.3847619,24.3635418 25.3921132,25.3561905 24.167619,25.3561905 L24.167619,25.3561905 Z M5.66095238,4.60952381 L5.66095238,23.1390476 C5.66095238,23.9427534 6.31248467,24.5942857 7.11619048,24.5942857 L24.167619,24.5942857 C24.9713249,24.5942857 25.6228571,23.9427534 25.6228571,23.1390476 L25.6228571,4.60952381 L5.66095238,4.60952381 Z" id="Shape" fill="#133456"></path>
            <rect id="Rectangle" fill="#FFCD0A" x="8.18285714" y="17.3942857" width="4.77714286" height="4.77714286" rx="1.45"></rect>
        </g>
    </g>
</svg>